<svg width="27" height="34" viewBox="0 0 27 34" fill="none" xmlns="http://www.w3.org/2000/svg">
<path d="M0.166992 4.1476C0.166992 2.36714 0.166992 1.4769 0.538224 0.986171C0.861632 0.558657 1.35595 0.294107 1.89106 0.262157C2.50529 0.225482 3.24601 0.719295 4.72745 1.70692L24.006 14.5593C25.2301 15.3753 25.8421 15.7834 26.0554 16.2977C26.2419 16.7473 26.2419 17.2526 26.0554 17.7022C25.8421 18.2165 25.2301 18.6246 24.006 19.4406L4.72744 32.293C3.24601 33.2806 2.50529 33.7744 1.89106 33.7377C1.35595 33.7058 0.861632 33.4412 0.538224 33.0137C0.166992 32.523 0.166992 31.6328 0.166992 29.8523V4.1476Z" fill="#0F172A"/>
</svg>
